<svg viewBox="0 0 960 560" xmlns="http://www.w3.org/2000/svg" font-family="system-ui, sans-serif">
<rect x="0" y="0" width="960" height="560" fill="#0d1117"/>
<rect x="40" y="40" width="880" height="480" fill="none" stroke="#30363d" stroke-width="3"/>
<text x="56" y="30" fill="#c9d1d9" font-size="18" font-weight="700">CITF — Door-Risk Heat Map (synthetic floor plan)</text>
<rect x="60" y="60" width="200" height="130" fill="#161b22" stroke="#30363d" stroke-width="1.5" rx="4"/>
<text x="68" y="78" fill="#8b949e" font-size="11">Dormitory</text>
<rect x="380" y="60" width="200" height="80" fill="#161b22" stroke="#30363d" stroke-width="1.5" rx="4"/>
<text x="388" y="78" fill="#8b949e" font-size="11">Rear Vestibule</text>
<rect x="700" y="60" width="120" height="80" fill="#161b22" stroke="#30363d" stroke-width="1.5" rx="4"/>
<text x="708" y="78" fill="#8b949e" font-size="11">Server Room</text>
<rect x="700" y="150" width="120" height="40" fill="#161b22" stroke="#30363d" stroke-width="1.5" rx="4"/>
<text x="708" y="168" fill="#8b949e" font-size="11">Network Closet</text>
<rect x="60" y="210" width="180" height="140" fill="#161b22" stroke="#30363d" stroke-width="1.5" rx="4"/>
<text x="68" y="228" fill="#8b949e" font-size="11">Library</text>
<rect x="300" y="200" width="320" height="170" fill="#161b22" stroke="#30363d" stroke-width="1.5" rx="4"/>
<text x="308" y="218" fill="#8b949e" font-size="11">Classroom Building</text>
<rect x="680" y="210" width="200" height="130" fill="#161b22" stroke="#30363d" stroke-width="1.5" rx="4"/>
<text x="688" y="228" fill="#8b949e" font-size="11">Administration</text>
<rect x="680" y="360" width="200" height="130" fill="#161b22" stroke="#30363d" stroke-width="1.5" rx="4"/>
<text x="688" y="378" fill="#8b949e" font-size="11">Records Room</text>
<rect x="60" y="380" width="200" height="120" fill="#161b22" stroke="#30363d" stroke-width="1.5" rx="4"/>
<text x="68" y="398" fill="#8b949e" font-size="11">Chapel</text>
<rect x="330" y="400" width="260" height="100" fill="#161b22" stroke="#30363d" stroke-width="1.5" rx="4"/>
<text x="338" y="418" fill="#8b949e" font-size="11">Main Lobby</text>
<rect x="454" y="508" width="32" height="16" rx="3" fill="#238636"/>
<text x="470" y="520" fill="#ffffff" font-size="9" font-weight="700" text-anchor="middle">EXIT</text>
<rect x="464" y="36" width="32" height="16" rx="3" fill="#238636"/>
<text x="480" y="48" fill="#ffffff" font-size="9" font-weight="700" text-anchor="middle">EXIT</text>
<rect x="32" y="292" width="32" height="16" rx="3" fill="#238636"/>
<text x="48" y="304" fill="#ffffff" font-size="9" font-weight="700" text-anchor="middle">EXIT</text>
<rect x="896" y="292" width="32" height="16" rx="3" fill="#238636"/>
<text x="912" y="304" fill="#ffffff" font-size="9" font-weight="700" text-anchor="middle">EXIT</text>
<rect x="142" y="282" width="16" height="16" rx="2" fill="#e8833a" stroke="#0d1117" stroke-width="1.5"><title>PIR-01 · Library · motion incidents: 3</title></rect>
<rect x="772" y="282" width="16" height="16" rx="2" fill="#f85149" stroke="#0d1117" stroke-width="1.5"><title>PIR-02 · Admin Office · motion incidents: 2</title></rect>
<circle cx="470" cy="505" r="19.0" fill="#e8833a" fill-opacity="0.85" stroke="#0d1117" stroke-width="2"><title>DOOR-01 · Main Lobby\nopens: 83 · total open: 103 min\npropped(AC-02): 0 · after-hours(AC-05): 2\nworst: P2</title></circle>
<text x="470" y="481" fill="#c9d1d9" font-size="10" text-anchor="middle">DOOR-01</text>
<circle cx="480" cy="52" r="19.0" fill="#f85149" fill-opacity="0.85" stroke="#0d1117" stroke-width="2"><title>DOOR-02 · Rear Entrance\nopens: 100 · total open: 291 min\npropped(AC-02): 10 · after-hours(AC-05): 1\nworst: P1</title></circle>
<text x="480" y="28" fill="#c9d1d9" font-size="10" text-anchor="middle">DOOR-02</text>
<circle cx="760" cy="150" r="19.0" fill="#3fb950" fill-opacity="0.85" stroke="#0d1117" stroke-width="2"><title>DOOR-03 · Server Room\nopens: 81 · total open: 63 min\npropped(AC-02): 0 · after-hours(AC-05): 0\nworst: none</title></circle>
<text x="760" y="126" fill="#c9d1d9" font-size="10" text-anchor="middle">DOOR-03</text>
<circle cx="778" cy="378" r="19.0" fill="#f85149" fill-opacity="0.85" stroke="#0d1117" stroke-width="2"><title>DOOR-04 · Records Room\nopens: 86 · total open: 103 min\npropped(AC-02): 2 · after-hours(AC-05): 0\nworst: P1</title></circle>
<text x="778" y="354" fill="#c9d1d9" font-size="10" text-anchor="middle">DOOR-04</text>
<circle cx="162" cy="200" r="19.0" fill="#3fb950" fill-opacity="0.85" stroke="#0d1117" stroke-width="2"><title>DOOR-05 · Dormitory\nopens: 73 · total open: 58 min\npropped(AC-02): 0 · after-hours(AC-05): 1\nworst: P4</title></circle>
<text x="162" y="176" fill="#c9d1d9" font-size="10" text-anchor="middle">DOOR-05</text>
<circle cx="160" cy="500" r="19.0" fill="#3fb950" fill-opacity="0.85" stroke="#0d1117" stroke-width="2"><title>DOOR-06 · Chapel\nopens: 76 · total open: 54 min\npropped(AC-02): 0 · after-hours(AC-05): 1\nworst: P4</title></circle>
<text x="160" y="476" fill="#c9d1d9" font-size="10" text-anchor="middle">DOOR-06</text>
<text x="56" y="534" fill="#8b949e" font-size="11">Worst severity:</text>
<circle cx="166" cy="530" r="7" fill="#f85149"/>
<text x="178" y="534" fill="#c9d1d9" font-size="11">P1</text>
<circle cx="256" cy="530" r="7" fill="#e8833a"/>
<text x="268" y="534" fill="#c9d1d9" font-size="11">P2</text>
<circle cx="346" cy="530" r="7" fill="#d4a72c"/>
<text x="358" y="534" fill="#c9d1d9" font-size="11">P3</text>
<circle cx="436" cy="530" r="7" fill="#3fb950"/>
<text x="448" y="534" fill="#c9d1d9" font-size="11">P4</text>
</svg>